# xmcd CD database file
#
# Track frame offsets:
#	150
#	18005
#	35575
#	53565
#	69990
#	89320
#	109753
#	127055
#	146789
#	164370
#
# Disc length: 2444 seconds
#
# Revision: 0
# Processed by: cddbd v1.5.2PL0 Copyright (c) Steve Scherf et al.
# Submitted via: cdripper 1,0,33,916
#
DISCID=82098a0a
DTITLE=Margarita - Tentaciones
DYEAR=1900
DGENRE=Salsa
TTITLE0=A bailar
TTITLE1=Si tienes otro amor
TTITLE2=Ojalá
TTITLE3=Tentación
TTITLE4=Rehilete
TTITLE5=Jurémonos
TTITLE6=Son tus ojos
TTITLE7=Y lloro
TTITLE8=Desde que te ví
TTITLE9=No te pido flores
EXTD=
EXTT0=
EXTT1=
EXTT2=
EXTT3=
EXTT4=
EXTT5=
EXTT6=
EXTT7=
EXTT8=
EXTT9=
PLAYORDER=
